<svg width="18" height="18" viewBox="0 0 18 18" fill="none" xmlns="http://www.w3.org/2000/svg">
<path d="M7.48831 3.41503C7.9837 3.29908 8.49089 3.24111 8.99967 3.24231C14.0376 3.24231 16.9163 8.99988 16.9163 8.99988C16.4795 9.81718 15.9585 10.5866 15.3618 11.2957M10.5254 10.5256C10.3278 10.7378 10.0894 10.9079 9.82456 11.0259C9.55971 11.1439 9.27381 11.2074 8.98391 11.2125C8.694 11.2176 8.40604 11.1643 8.1372 11.0557C7.86835 10.9471 7.62413 10.7855 7.41911 10.5804C7.21409 10.3754 7.05246 10.1312 6.94387 9.86236C6.83528 9.59352 6.78195 9.30555 6.78706 9.01565C6.79218 8.72575 6.85563 8.43985 6.97364 8.175C7.09165 7.91015 7.26179 7.67179 7.47392 7.47413M1.08301 1.08337L16.9163 16.9167M13.2747 13.2749C12.0444 14.2126 10.5464 14.7322 8.99967 14.7575C3.9618 14.7575 1.08301 8.99988 1.08301 8.99988C1.97823 7.33155 3.21989 5.87396 4.72467 4.72488L13.2747 13.2749Z" stroke="#848588" stroke-width="1.5" stroke-linecap="round" stroke-linejoin="round"/>
</svg>
