<svg width="134" height="134" viewBox="0 0 134 134" fill="none" xmlns="http://www.w3.org/2000/svg">
<path d="M132 49.2956L69.453 94.4847C68.2567 95.3491 66.6536 95.3545 65.4517 94.4982L2 49.2956M85.2 83.6091L130.7 129.8M49.2333 83.6091L3.73333 129.8M61.9984 3.61303L5.66504 44.0268C3.36662 45.6757 2 48.3549 2 51.2121V123.202C2 128.061 5.8802 132 10.6667 132H123.333C128.12 132 132 128.061 132 123.202V51.2121C132 48.3549 130.633 45.6757 128.335 44.0268L72.0016 3.61304C69.0037 1.46232 64.9963 1.46232 61.9984 3.61303Z" stroke="url(#paint0_linear_4939_9232)" stroke-width="3"/>
<circle cx="96.4665" cy="21.9333" r="19.9333" fill="white" stroke="url(#paint1_linear_4939_9232)" stroke-width="3"/>
<defs>
<linearGradient id="paint0_linear_4939_9232" x1="113.367" y1="1.78434" x2="0.0810735" y2="130.308" gradientUnits="userSpaceOnUse">
<stop stop-color="#FDBA14"/>
<stop offset="1" stop-color="#FF37B1"/>
</linearGradient>
<linearGradient id="paint1_linear_4939_9232" x1="110.333" y1="4.6" x2="82.5999" y2="38.8333" gradientUnits="userSpaceOnUse">
<stop stop-color="#FEA330"/>
<stop offset="1" stop-color="#FF3AAE"/>
</linearGradient>
</defs>
</svg>
