<svg width="18" height="14" viewBox="0 0 18 14" fill="none" xmlns="http://www.w3.org/2000/svg">
<path fill-rule="evenodd" clip-rule="evenodd" d="M1.97114 7C2.05109 7.14036 2.16257 7.32815 2.30461 7.5489C2.63048 8.05533 3.11318 8.72904 3.74027 9.40041C5.00557 10.7551 6.78647 12.026 9.00038 12.026C11.2143 12.026 12.9952 10.7551 14.2605 9.40041C14.8876 8.72904 15.3703 8.05533 15.6961 7.5489C15.8382 7.32815 15.9497 7.14036 16.0296 7C15.9497 6.85963 15.8382 6.67185 15.6961 6.4511C15.3703 5.94467 14.8876 5.27096 14.2605 4.59959C12.9952 3.24495 11.2143 1.97404 9.00038 1.97404C6.78647 1.97404 5.00557 3.24495 3.74027 4.59959C3.11318 5.27096 2.63048 5.94467 2.30461 6.4511C2.16257 6.67185 2.05109 6.85963 1.97114 7ZM16.724 7C17.2694 6.7263 17.2693 6.72609 17.2692 6.72586L17.2681 6.72376L17.2658 6.71918L17.2581 6.704C17.2516 6.69124 17.2423 6.67327 17.2302 6.65043C17.2061 6.60476 17.1711 6.53959 17.1252 6.45769C17.0334 6.29398 16.8981 6.06296 16.7206 5.78703C16.3662 5.23634 15.8396 4.50055 15.1502 3.76242C13.7824 2.29808 11.7015 0.75 9.00038 0.75C6.29926 0.75 4.21834 2.29808 2.85059 3.76242C2.16115 4.50055 1.63451 5.23634 1.28017 5.78703C1.10262 6.06296 0.967329 6.29398 0.875582 6.45769C0.829685 6.53959 0.794617 6.60476 0.770541 6.65043C0.758501 6.67327 0.749203 6.69124 0.742669 6.704L0.73494 6.71918L0.732633 6.72376L0.731869 6.72529C0.731755 6.72552 0.731366 6.7263 1.27675 7L0.731366 6.7263C0.645534 6.8986 0.645534 7.1014 0.731366 7.2737L1.27675 7C0.731366 7.2737 0.731251 7.27347 0.731366 7.2737L0.731869 7.27471L0.732633 7.27624L0.73494 7.28082L0.742669 7.296C0.749203 7.30876 0.758501 7.32673 0.770541 7.34957C0.794617 7.39524 0.829685 7.46041 0.875582 7.54231C0.967329 7.70602 1.10262 7.93704 1.28017 8.21297C1.63451 8.76366 2.16115 9.49945 2.85059 10.2376C4.21834 11.7019 6.29926 13.25 9.00038 13.25C11.7015 13.25 13.7824 11.7019 15.1502 10.2376C15.8396 9.49945 16.3662 8.76366 16.7206 8.21297C16.8981 7.93704 17.0334 7.70602 17.1252 7.54231C17.1711 7.46041 17.2061 7.39524 17.2302 7.34957C17.2423 7.32673 17.2516 7.30876 17.2581 7.296L17.2658 7.28082L17.2681 7.27624L17.2689 7.27471C17.269 7.27448 17.2694 7.2737 16.724 7ZM16.724 7L17.2694 7.2737C17.3552 7.1014 17.355 6.89816 17.2692 6.72586L16.724 7Z" fill="#848588"/>
<path fill-rule="evenodd" clip-rule="evenodd" d="M9.00036 5.49774C8.17377 5.49774 7.50368 6.17031 7.50368 6.99997C7.50368 7.82962 8.17377 8.50219 9.00036 8.50219C9.82696 8.50219 10.497 7.82962 10.497 6.99997C10.497 6.17031 9.82696 5.49774 9.00036 5.49774ZM6.28416 6.99997C6.28416 5.49429 7.50025 4.2737 9.00036 4.2737C10.5005 4.2737 11.7166 5.49429 11.7166 6.99997C11.7166 8.50564 10.5005 9.72623 9.00036 9.72623C7.50025 9.72623 6.28416 8.50564 6.28416 6.99997Z" fill="#848588"/>
</svg>
